<svg id="visual" viewBox="0 0 900 600" width="900" height="600" xmlns="http://www.w3.org/2000/svg" xmlns:xlink="http://www.w3.org/1999/xlink" version="1.1"><g stroke-width="1" stroke-linejoin="bevel"><path d="M426 312L483 387L496 306Z" fill="#8334ab" stroke="#8334ab"></path><path d="M426 312L424 436L483 387Z" fill="#001a2f" stroke="#001a2f"></path><path d="M584 460L577 330L483 387Z" fill="#2a3580" stroke="#2a3580"></path><path d="M483 387L577 330L496 306Z" fill="#001a2f" stroke="#001a2f"></path><path d="M577 330L513 238L496 306Z" fill="#002244" stroke="#002244"></path><path d="M496 306L513 238L426 312Z" fill="#00101c" stroke="#00101c"></path><path d="M424 436L517 460L483 387Z" fill="#00101c" stroke="#00101c"></path><path d="M426 312L314 412L424 436Z" fill="#8334ab" stroke="#8334ab"></path><path d="M424 436L404 527L517 460Z" fill="#00101c" stroke="#00101c"></path><path d="M517 460L584 460L483 387Z" fill="#a42ab3" stroke="#a42ab3"></path><path d="M260 214L291 330L426 312Z" fill="#463891" stroke="#463891"></path><path d="M426 312L291 330L314 412Z" fill="#c611b7" stroke="#c611b7"></path><path d="M584 460L636 376L577 330Z" fill="#8334ab" stroke="#8334ab"></path><path d="M577 330L578 188L513 238Z" fill="#00101c" stroke="#00101c"></path><path d="M513 238L403 162L426 312Z" fill="#2a3580" stroke="#2a3580"></path><path d="M668 191L578 188L577 330Z" fill="#a42ab3" stroke="#a42ab3"></path><path d="M513 238L495 82L403 162Z" fill="#2a3580" stroke="#2a3580"></path><path d="M316 486L404 527L424 436Z" fill="#00101c" stroke="#00101c"></path><path d="M517 460L563 600L584 460Z" fill="#00101c" stroke="#00101c"></path><path d="M314 412L316 486L424 436Z" fill="#c611b7" stroke="#c611b7"></path><path d="M207 515L316 486L314 412Z" fill="#0e306d" stroke="#0e306d"></path><path d="M584 460L693 379L636 376Z" fill="#0e306d" stroke="#0e306d"></path><path d="M636 376L706 273L577 330Z" fill="#8334ab" stroke="#8334ab"></path><path d="M260 214L234 304L291 330Z" fill="#00101c" stroke="#00101c"></path><path d="M291 330L180 409L314 412Z" fill="#00101c" stroke="#00101c"></path><path d="M403 162L260 214L426 312Z" fill="#8334ab" stroke="#8334ab"></path><path d="M693 379L706 273L636 376Z" fill="#463891" stroke="#463891"></path><path d="M389 60L325 131L403 162Z" fill="#a42ab3" stroke="#a42ab3"></path><path d="M403 162L325 131L260 214Z" fill="#c611b7" stroke="#c611b7"></path><path d="M706 273L668 191L577 330Z" fill="#00101c" stroke="#00101c"></path><path d="M578 188L495 82L513 238Z" fill="#2a3580" stroke="#2a3580"></path><path d="M434 600L466 600L404 527Z" fill="#2a3580" stroke="#2a3580"></path><path d="M404 527L466 600L517 460Z" fill="#002244" stroke="#002244"></path><path d="M584 460L696 539L693 379Z" fill="#0e306d" stroke="#0e306d"></path><path d="M301 600L434 600L404 527Z" fill="#0e306d" stroke="#0e306d"></path><path d="M579 78L495 82L578 188Z" fill="#8334ab" stroke="#8334ab"></path><path d="M466 600L563 600L517 460Z" fill="#002a59" stroke="#002a59"></path><path d="M677 102L579 78L578 188Z" fill="#001a2f" stroke="#001a2f"></path><path d="M85 275L180 409L234 304Z" fill="#001a2f" stroke="#001a2f"></path><path d="M234 304L180 409L291 330Z" fill="#a42ab3" stroke="#a42ab3"></path><path d="M316 486L301 600L404 527Z" fill="#002a59" stroke="#002a59"></path><path d="M495 82L389 60L403 162Z" fill="#00101c" stroke="#00101c"></path><path d="M400 0L389 60L495 82Z" fill="#002a59" stroke="#002a59"></path><path d="M563 600L696 539L584 460Z" fill="#8334ab" stroke="#8334ab"></path><path d="M693 379L813 417L706 273Z" fill="#002a59" stroke="#002a59"></path><path d="M199 117L178 238L260 214Z" fill="#001a2f" stroke="#001a2f"></path><path d="M260 214L178 238L234 304Z" fill="#8334ab" stroke="#8334ab"></path><path d="M199 117L260 214L325 131Z" fill="#002a59" stroke="#002a59"></path><path d="M207 515L301 600L316 486Z" fill="#a42ab3" stroke="#a42ab3"></path><path d="M180 409L207 515L314 412Z" fill="#002244" stroke="#002244"></path><path d="M776 129L677 102L668 191Z" fill="#c611b7" stroke="#c611b7"></path><path d="M668 191L677 102L578 188Z" fill="#a42ab3" stroke="#a42ab3"></path><path d="M563 600L686 600L696 539Z" fill="#0e306d" stroke="#0e306d"></path><path d="M593 0L508 0L579 78Z" fill="#002a59" stroke="#002a59"></path><path d="M579 78L508 0L495 82Z" fill="#2a3580" stroke="#2a3580"></path><path d="M279 0L325 131L389 60Z" fill="#a42ab3" stroke="#a42ab3"></path><path d="M279 0L199 117L325 131Z" fill="#8334ab" stroke="#8334ab"></path><path d="M508 0L400 0L495 82Z" fill="#a42ab3" stroke="#a42ab3"></path><path d="M207 515L219 600L301 600Z" fill="#463891" stroke="#463891"></path><path d="M115 490L219 600L207 515Z" fill="#002244" stroke="#002244"></path><path d="M824 466L813 417L696 539Z" fill="#002244" stroke="#002244"></path><path d="M696 539L813 417L693 379Z" fill="#001a2f" stroke="#001a2f"></path><path d="M822 219L776 129L668 191Z" fill="#463891" stroke="#463891"></path><path d="M679 0L593 0L579 78Z" fill="#2a3580" stroke="#2a3580"></path><path d="M822 219L668 191L706 273Z" fill="#c611b7" stroke="#c611b7"></path><path d="M677 102L679 0L579 78Z" fill="#6438a0" stroke="#6438a0"></path><path d="M838 266L822 219L706 273Z" fill="#0e306d" stroke="#0e306d"></path><path d="M84 411L115 490L180 409Z" fill="#c611b7" stroke="#c611b7"></path><path d="M180 409L115 490L207 515Z" fill="#0e306d" stroke="#0e306d"></path><path d="M85 275L234 304L178 238Z" fill="#002a59" stroke="#002a59"></path><path d="M816 600L824 466L696 539Z" fill="#002244" stroke="#002244"></path><path d="M813 417L838 266L706 273Z" fill="#0e306d" stroke="#0e306d"></path><path d="M900 362L838 266L813 417Z" fill="#001a2f" stroke="#001a2f"></path><path d="M77 223L85 275L178 238Z" fill="#2a3580" stroke="#2a3580"></path><path d="M85 275L84 411L180 409Z" fill="#002244" stroke="#002244"></path><path d="M400 0L279 0L389 60Z" fill="#8334ab" stroke="#8334ab"></path><path d="M199 117L77 223L178 238Z" fill="#a42ab3" stroke="#a42ab3"></path><path d="M781 0L679 0L677 102Z" fill="#c611b7" stroke="#c611b7"></path><path d="M100 70L77 223L199 117Z" fill="#002a59" stroke="#002a59"></path><path d="M85 275L0 408L84 411Z" fill="#2a3580" stroke="#2a3580"></path><path d="M686 600L816 600L696 539Z" fill="#8334ab" stroke="#8334ab"></path><path d="M824 466L900 362L813 417Z" fill="#8334ab" stroke="#8334ab"></path><path d="M900 506L900 362L824 466Z" fill="#00101c" stroke="#00101c"></path><path d="M838 266L900 201L822 219Z" fill="#463891" stroke="#463891"></path><path d="M822 219L900 201L776 129Z" fill="#2a3580" stroke="#2a3580"></path><path d="M900 362L900 272L838 266Z" fill="#a42ab3" stroke="#a42ab3"></path><path d="M776 129L781 0L677 102Z" fill="#8334ab" stroke="#8334ab"></path><path d="M279 0L181 0L199 117Z" fill="#8334ab" stroke="#8334ab"></path><path d="M181 0L100 70L199 117Z" fill="#8334ab" stroke="#8334ab"></path><path d="M900 272L900 201L838 266Z" fill="#0e306d" stroke="#0e306d"></path><path d="M816 600L900 506L824 466Z" fill="#a42ab3" stroke="#a42ab3"></path><path d="M900 61L781 0L776 129Z" fill="#6438a0" stroke="#6438a0"></path><path d="M0 264L0 408L85 275Z" fill="#001a2f" stroke="#001a2f"></path><path d="M84 411L0 479L115 490Z" fill="#00101c" stroke="#00101c"></path><path d="M115 490L61 600L219 600Z" fill="#001a2f" stroke="#001a2f"></path><path d="M0 264L85 275L77 223Z" fill="#00101c" stroke="#00101c"></path><path d="M0 189L0 264L77 223Z" fill="#00101c" stroke="#00101c"></path><path d="M0 479L61 600L115 490Z" fill="#002a59" stroke="#002a59"></path><path d="M0 408L0 479L84 411Z" fill="#0e306d" stroke="#0e306d"></path><path d="M100 70L0 189L77 223Z" fill="#0e306d" stroke="#0e306d"></path><path d="M181 0L112 0L100 70Z" fill="#a42ab3" stroke="#a42ab3"></path><path d="M100 70L0 80L0 189Z" fill="#c611b7" stroke="#c611b7"></path><path d="M816 600L900 600L900 506Z" fill="#6438a0" stroke="#6438a0"></path><path d="M900 201L900 61L776 129Z" fill="#0e306d" stroke="#0e306d"></path><path d="M0 479L0 600L61 600Z" fill="#463891" stroke="#463891"></path><path d="M0 0L0 80L100 70Z" fill="#0e306d" stroke="#0e306d"></path><path d="M900 61L900 0L781 0Z" fill="#463891" stroke="#463891"></path><path d="M112 0L0 0L100 70Z" fill="#463891" stroke="#463891"></path></g></svg>